<?xml version="1.0" encoding="utf-8"?>
<!-- Generator: Adobe Illustrator 16.0.0, SVG Export Plug-In . SVG Version: 6.00 Build 0)  -->
<!DOCTYPE svg PUBLIC "-//W3C//DTD SVG 1.1//EN" "http://www.w3.org/Graphics/SVG/1.1/DTD/svg11.dtd">
<svg version="1.1" id="Layer_1" xmlns="http://www.w3.org/2000/svg" xmlns:xlink="http://www.w3.org/1999/xlink" x="0px" y="0px"
	 width="405.085px" height="158.989px" viewBox="0 0 405.085 158.989" enable-background="new 0 0 405.085 158.989"
	 xml:space="preserve">
<g>
	<g>
		<path fill="none" d="M90.231,52.246c-5.987-6.412-11.974-12.827-17.985-19.268c-6.927,5.535-12.976,5.415-18.719,1.038
			c-7.715,7.709-15.243,15.229-22.8,22.782c4.545,7.107,4.529,10.841-0.293,17.983c16.938,16.74,33.902,33.508,51.048,50.456
			c5.68-4.525,11.716-4.482,18.06,0.584c2.536-2.722,4.928-5.337,7.374-7.9c5.048-5.299,10.125-10.565,15.188-15.849
			c0.294-0.138,0.656-0.21,0.873-0.426c8.409-8.397,16.789-16.823,25.212-25.205c1.445-1.438,0.967-2.601,0.053-4.1
			c-2.649-4.346-2.75-8.892-0.088-13.228c1.224-1.996,1.112-3.245-0.554-4.872c-6.2-6.051-12.316-12.193-18.37-18.393
			c-1.468-1.503-2.566-1.892-4.497-0.629c-4.405,2.884-9.084,2.786-13.483,0.004c-1.914-1.209-3.014-1.003-4.52,0.539
			C101.299,41.326,95.742,46.763,90.231,52.246z"/>
		<path fill="#07123A" d="M122.104,102.073c-5.064,5.282-10.141,10.551-15.188,15.848c-2.445,2.564-4.837,5.181-7.374,7.901
			c-6.343-5.067-12.38-5.11-18.06-0.584c-17.146-16.948-34.11-33.716-51.048-50.456c4.822-7.143,4.838-10.876,0.293-17.983
			c7.558-7.553,15.085-15.073,22.8-22.782c5.744,4.377,11.792,4.497,18.719-1.038c6.011,6.44,11.998,12.855,17.985,19.268
			c0.717,0.83,1.39,1.704,2.161,2.48c9.002,9.044,17.979,18.113,27.068,27.072c1.813,1.785,2.505,2.955,0.772,5.465
			C116.986,91.965,118.048,98.286,122.104,102.073z"/>
		<path fill="#4CD484" d="M122.104,102.073c-4.055-3.787-5.118-10.107-1.871-14.81c1.733-2.511,1.041-3.679-0.772-5.466
			c-9.088-8.958-18.065-18.027-27.068-27.071c-0.771-0.776-1.444-1.65-2.161-2.48c5.51-5.483,11.067-10.92,16.499-16.481
			c1.506-1.542,2.606-1.748,4.52-0.539c4.398,2.782,9.078,2.88,13.483-0.004c1.93-1.263,3.029-0.874,4.497,0.629
			c6.054,6.199,12.169,12.342,18.37,18.393c1.666,1.627,1.778,2.876,0.554,4.872c-2.662,4.336-2.561,8.882,0.088,13.228
			c0.914,1.499,1.392,2.662-0.053,4.1c-8.423,8.383-16.803,16.809-25.212,25.205C122.76,101.863,122.398,101.936,122.104,102.073z"
			/>
	</g>
	<g>
		<path fill="#07123A" d="M195.215,68.131c-2.036,0-3.784-0.294-5.246-0.881c-1.462-0.587-2.674-1.412-3.634-2.473
			s-1.67-2.308-2.128-3.741c-0.459-1.433-0.688-3.01-0.688-4.729V37.688h5.461V55.79c0,1.348,0.15,2.502,0.452,3.462
			c0.301,0.961,0.731,1.741,1.29,2.344c0.559,0.602,1.218,1.047,1.978,1.333c0.759,0.286,1.612,0.43,2.558,0.43
			c0.946,0,1.806-0.144,2.58-0.43c0.774-0.286,1.44-0.731,2-1.333c0.559-0.603,0.989-1.383,1.29-2.344
			c0.301-0.96,0.452-2.114,0.452-3.462V37.688h5.46v18.619c0,1.72-0.235,3.297-0.709,4.729c-0.473,1.434-1.189,2.681-2.149,3.741
			c-0.961,1.061-2.187,1.886-3.677,2.473C199.014,67.837,197.25,68.131,195.215,68.131z"/>
		<path fill="#07123A" d="M213.49,45.729c1.004-0.286,2.307-0.56,3.913-0.817c1.604-0.258,3.382-0.387,5.332-0.387
			c1.834,0,3.368,0.251,4.601,0.752c1.232,0.502,2.215,1.204,2.945,2.107c0.731,0.903,1.247,1.993,1.549,3.268
			c0.301,1.276,0.451,2.674,0.451,4.193v12.642h-5.203V55.661c0-1.204-0.078-2.229-0.236-3.074
			c-0.157-0.846-0.416-1.533-0.773-2.064c-0.359-0.529-0.846-0.917-1.462-1.16c-0.617-0.244-1.369-0.366-2.257-0.366
			c-0.66,0-1.348,0.043-2.064,0.129s-1.246,0.158-1.591,0.215v18.146h-5.202V45.729H213.49z"/>
		<path fill="#07123A" d="M244.235,38.418c0,0.976-0.315,1.749-0.946,2.322c-0.631,0.574-1.375,0.86-2.235,0.86
			c-0.89,0-1.649-0.286-2.279-0.86c-0.631-0.573-0.946-1.347-0.946-2.322c0-1.003,0.315-1.791,0.946-2.364
			c0.63-0.573,1.39-0.86,2.279-0.86c0.86,0,1.604,0.287,2.235,0.86C243.919,36.627,244.235,37.415,244.235,38.418z M243.675,67.486
			h-5.202V44.997h5.202V67.486z"/>
		<path fill="#07123A" d="M255.876,67.486c-1.438-2.952-2.914-6.343-4.426-10.17c-1.512-3.826-2.886-7.933-4.123-12.319h5.549
			c0.316,1.262,0.684,2.616,1.102,4.063c0.417,1.448,0.863,2.896,1.338,4.344c0.475,1.448,0.964,2.853,1.469,4.214
			c0.504,1.361,0.971,2.587,1.402,3.676c0.432-1.089,0.893-2.314,1.381-3.676c0.489-1.362,0.973-2.767,1.447-4.214
			c0.475-1.447,0.928-2.896,1.359-4.344c0.432-1.447,0.806-2.802,1.123-4.063h5.377c-1.238,4.387-2.612,8.493-4.125,12.319
			c-1.512,3.827-2.985,7.218-4.426,10.17H255.876z"/>
		<path fill="#07123A" d="M270.722,56.35c0-1.979,0.293-3.712,0.881-5.203c0.587-1.49,1.369-2.73,2.344-3.72
			c0.975-0.989,2.092-1.734,3.354-2.236c1.262-0.501,2.552-0.752,3.871-0.752c3.096,0,5.511,0.961,7.244,2.881
			c1.734,1.921,2.603,4.788,2.603,8.6c0,0.287-0.007,0.609-0.021,0.968c-0.016,0.359-0.037,0.682-0.064,0.968h-14.835
			c0.144,1.806,0.78,3.203,1.914,4.192c1.132,0.989,2.772,1.483,4.923,1.483c1.261,0,2.415-0.114,3.461-0.344
			s1.871-0.474,2.473-0.731l0.688,4.257c-0.287,0.145-0.681,0.295-1.183,0.452s-1.076,0.301-1.721,0.43
			c-0.645,0.129-1.34,0.236-2.085,0.322c-0.746,0.086-1.505,0.129-2.278,0.129c-1.979,0-3.699-0.294-5.16-0.881
			c-1.463-0.588-2.666-1.404-3.612-2.451c-0.946-1.046-1.647-2.279-2.106-3.698C270.951,59.596,270.722,58.041,270.722,56.35z
			 M285.815,54.027c0-0.716-0.101-1.397-0.301-2.043c-0.201-0.645-0.495-1.203-0.882-1.677c-0.387-0.473-0.859-0.845-1.418-1.118
			c-0.56-0.271-1.227-0.408-2-0.408c-0.803,0-1.506,0.15-2.107,0.451c-0.602,0.302-1.111,0.695-1.527,1.183
			c-0.416,0.488-0.738,1.047-0.967,1.678c-0.23,0.631-0.387,1.275-0.473,1.935L285.815,54.027L285.815,54.027z"/>
		<path fill="#07123A" d="M309.121,49.685c-0.431-0.144-1.024-0.294-1.785-0.452c-0.76-0.157-1.642-0.236-2.645-0.236
			c-0.574,0-1.182,0.058-1.826,0.172c-0.646,0.115-1.098,0.216-1.355,0.302v18.017h-5.202V46.072
			c1.003-0.372,2.257-0.724,3.763-1.054c1.506-0.329,3.174-0.494,5.01-0.494c0.344,0,0.744,0.021,1.203,0.064
			s0.918,0.101,1.377,0.172c0.459,0.072,0.902,0.158,1.332,0.258c0.432,0.101,0.774,0.193,1.032,0.279L309.121,49.685z"/>
		<path fill="#07123A" d="M319.053,63.745c1.376,0,2.379-0.164,3.01-0.494c0.63-0.329,0.946-0.896,0.946-1.698
			c0-0.745-0.338-1.361-1.012-1.85c-0.674-0.487-1.783-1.017-3.332-1.591c-0.945-0.344-1.813-0.71-2.603-1.097
			c-0.789-0.387-1.469-0.838-2.042-1.354c-0.574-0.516-1.025-1.14-1.354-1.87c-0.33-0.731-0.494-1.627-0.494-2.688
			c0-2.064,0.759-3.69,2.277-4.881c1.521-1.189,3.584-1.784,6.192-1.784c1.317,0,2.58,0.122,3.784,0.365
			c1.203,0.244,2.105,0.48,2.709,0.71l-0.946,4.214c-0.573-0.258-1.305-0.495-2.192-0.71c-0.889-0.215-1.922-0.322-3.097-0.322
			c-1.062,0-1.921,0.18-2.579,0.537c-0.66,0.359-0.99,0.911-0.99,1.656c0,0.372,0.064,0.702,0.194,0.988
			c0.13,0.287,0.351,0.553,0.666,0.796c0.315,0.244,0.731,0.487,1.247,0.731c0.516,0.243,1.146,0.494,1.893,0.752
			c1.231,0.459,2.278,0.91,3.14,1.354c0.858,0.445,1.569,0.946,2.128,1.505c0.561,0.56,0.968,1.197,1.227,1.914
			c0.258,0.717,0.387,1.576,0.387,2.58c0,2.149-0.795,3.776-2.387,4.88c-1.59,1.104-3.863,1.655-6.814,1.655
			c-1.979,0-3.569-0.165-4.773-0.494c-1.203-0.329-2.05-0.595-2.537-0.796l0.903-4.343c0.772,0.316,1.698,0.617,2.772,0.903
			C316.453,63.603,317.677,63.745,319.053,63.745z"/>
		<path fill="#07123A" d="M340.337,44.438c1.72,0,3.166,0.215,4.343,0.645c1.176,0.431,2.114,1.032,2.815,1.807
			c0.703,0.773,1.205,1.713,1.506,2.816c0.302,1.104,0.451,2.315,0.451,3.633v13.632c-0.803,0.172-2.015,0.38-3.634,0.623
			c-1.62,0.243-3.446,0.365-5.481,0.365c-1.348,0-2.58-0.129-3.698-0.387c-1.118-0.258-2.071-0.673-2.859-1.247
			c-0.788-0.573-1.403-1.318-1.849-2.236c-0.445-0.917-0.667-2.049-0.667-3.396c0-1.29,0.251-2.379,0.753-3.268
			c0.501-0.889,1.184-1.613,2.042-2.172c0.86-0.56,1.856-0.96,2.989-1.204c1.132-0.243,2.313-0.365,3.547-0.365
			c0.572,0,1.176,0.036,1.807,0.107c0.631,0.071,1.305,0.193,2.021,0.365v-0.86c0-0.602-0.072-1.175-0.215-1.72
			c-0.145-0.544-0.396-1.024-0.754-1.44c-0.357-0.415-0.83-0.737-1.418-0.968c-0.588-0.229-1.326-0.344-2.215-0.344
			c-1.203,0-2.309,0.086-3.313,0.258s-1.819,0.373-2.45,0.603l-0.646-4.214c0.66-0.229,1.619-0.459,2.881-0.688
			C337.556,44.553,338.904,44.438,340.337,44.438z M340.767,63.831c1.605,0,2.822-0.086,3.654-0.258v-5.762
			c-0.287-0.086-0.703-0.172-1.246-0.258c-0.545-0.086-1.146-0.129-1.807-0.129c-0.574,0-1.154,0.043-1.74,0.129
			c-0.588,0.086-1.119,0.243-1.592,0.473c-0.474,0.229-0.854,0.552-1.141,0.968c-0.286,0.416-0.43,0.939-0.43,1.569
			c0,1.232,0.387,2.085,1.16,2.559C338.403,63.595,339.449,63.831,340.767,63.831z"/>
		<path fill="#07123A" d="M363.428,67.916c-1.548-0.028-2.831-0.2-3.849-0.516c-1.019-0.316-1.828-0.767-2.43-1.354
			c-0.604-0.587-1.025-1.318-1.27-2.193c-0.243-0.874-0.365-1.87-0.365-2.988V34.979l5.203-0.86v25.757
			c0,0.631,0.05,1.161,0.15,1.592c0.101,0.43,0.279,0.795,0.537,1.096c0.258,0.302,0.608,0.531,1.055,0.688
			c0.442,0.158,1.01,0.279,1.697,0.365L363.428,67.916z"/>
		<path fill="#07123A" d="M192.253,119.086c-2.151-4.645-4.224-9.504-6.218-14.578c-1.993-5.073-3.851-10.146-5.571-15.221h5.979
			c0.689,2.006,1.394,4.057,2.112,6.147c0.718,2.094,1.437,4.149,2.156,6.171c0.718,2.021,1.437,3.979,2.155,5.869
			c0.718,1.893,1.422,3.627,2.112,5.203c0.661-1.576,1.351-3.305,2.069-5.182c0.718-1.877,1.444-3.834,2.177-5.869
			c0.732-2.035,1.458-4.1,2.177-6.192c0.718-2.093,1.408-4.142,2.069-6.147h5.807c-1.755,5.073-3.625,10.146-5.609,15.221
			c-1.985,5.074-4.058,9.935-6.215,14.578H192.253z"/>
		<path fill="#07123A" d="M231.25,107.82c0,1.777-0.258,3.396-0.773,4.858c-0.516,1.462-1.247,2.709-2.193,3.74
			c-0.945,1.033-2.084,1.836-3.418,2.408c-1.332,0.573-2.803,0.859-4.408,0.859s-3.067-0.286-4.386-0.859
			c-1.319-0.572-2.45-1.375-3.397-2.408c-0.945-1.031-1.685-2.278-2.215-3.74c-0.53-1.463-0.795-3.081-0.795-4.858
			c0-1.776,0.266-3.39,0.795-4.838c0.53-1.446,1.275-2.688,2.236-3.72c0.96-1.032,2.1-1.827,3.418-2.387s2.766-0.838,4.344-0.838
			c1.576,0,3.031,0.278,4.364,0.838s2.472,1.354,3.419,2.387c0.945,1.031,1.684,2.271,2.213,3.72
			C230.985,104.431,231.25,106.043,231.25,107.82z M225.917,107.82c0-2.235-0.479-4.006-1.439-5.312
			c-0.961-1.305-2.3-1.957-4.021-1.957c-1.72,0-3.061,0.652-4.021,1.957c-0.961,1.306-1.44,3.074-1.44,5.312
			c0,2.265,0.479,4.058,1.44,5.375c0.96,1.318,2.301,1.978,4.021,1.978c1.721,0,3.061-0.658,4.021-1.978
			C225.438,111.877,225.917,110.084,225.917,107.82z"/>
		<path fill="#07123A" d="M254.856,118.397c-1.003,0.26-2.308,0.523-3.913,0.796s-3.369,0.408-5.289,0.408
			c-1.806,0-3.318-0.259-4.537-0.772c-1.219-0.518-2.193-1.232-2.924-2.15s-1.254-2.014-1.57-3.289
			c-0.315-1.275-0.473-2.674-0.473-4.192v-12.6h5.203v11.782c0,2.408,0.352,4.127,1.055,5.16c0.701,1.031,1.928,1.547,3.676,1.547
			c0.629,0,1.297-0.027,2-0.086c0.701-0.058,1.226-0.129,1.569-0.215V96.597h5.203V118.397z"/>
		<path fill="#07123A" d="M260.017,107.863c0-1.661,0.258-3.218,0.773-4.666c0.517-1.446,1.254-2.7,2.215-3.763
			c0.961-1.061,2.129-1.893,3.504-2.493c1.377-0.603,2.925-0.903,4.645-0.903c2.121,0,4.129,0.387,6.02,1.162l-1.117,4.256
			c-0.602-0.258-1.283-0.473-2.042-0.646c-0.761-0.172-1.569-0.259-2.431-0.259c-2.035,0-3.582,0.64-4.644,1.914
			c-1.062,1.275-1.591,3.074-1.591,5.396c0,2.235,0.501,4.006,1.505,5.311c1.004,1.306,2.694,1.957,5.073,1.957
			c0.889,0,1.764-0.086,2.623-0.258c0.861-0.172,1.605-0.388,2.236-0.646l0.731,4.301c-0.574,0.286-1.44,0.545-2.603,0.773
			c-1.16,0.229-2.357,0.344-3.59,0.344c-1.921,0-3.59-0.294-5.01-0.881c-1.419-0.588-2.596-1.404-3.525-2.451
			c-0.933-1.046-1.627-2.293-2.086-3.741C260.246,111.124,260.017,109.555,260.017,107.863z"/>
		<path fill="#07123A" d="M281.343,119.086V86.579l5.203-0.861v11.138c0.574-0.2,1.24-0.372,2-0.517
			c0.76-0.143,1.513-0.215,2.258-0.215c1.806,0,3.304,0.252,4.494,0.752c1.188,0.502,2.143,1.205,2.859,2.107
			c0.715,0.902,1.225,1.984,1.525,3.246c0.301,1.264,0.451,2.666,0.451,4.215v12.643h-5.202v-11.825
			c0-1.204-0.079-2.229-0.236-3.074c-0.157-0.847-0.416-1.533-0.774-2.063c-0.358-0.529-0.838-0.918-1.439-1.16
			c-0.602-0.244-1.348-0.366-2.236-0.366c-0.688,0-1.391,0.071-2.106,0.215c-0.718,0.146-1.247,0.272-1.591,0.388v17.889h-5.205
			V119.086z"/>
		<path fill="#07123A" d="M304.908,107.95c0-1.979,0.293-3.713,0.881-5.203s1.369-2.73,2.344-3.721
			c0.976-0.99,2.093-1.734,3.354-2.236c1.263-0.5,2.552-0.752,3.87-0.752c3.098,0,5.512,0.961,7.246,2.881
			c1.732,1.922,2.602,4.789,2.602,8.601c0,0.287-0.008,0.608-0.021,0.968c-0.017,0.359-0.037,0.682-0.063,0.969h-14.836
			c0.144,1.805,0.78,3.203,1.914,4.191c1.131,0.988,2.772,1.482,4.924,1.482c1.26,0,2.414-0.113,3.461-0.344
			c1.045-0.229,1.871-0.474,2.473-0.73l0.688,4.257c-0.287,0.146-0.682,0.295-1.183,0.452c-0.502,0.156-1.075,0.301-1.722,0.43
			c-0.645,0.129-1.34,0.236-2.084,0.322c-0.746,0.086-1.506,0.129-2.279,0.129c-1.979,0-3.698-0.294-5.16-0.881
			c-1.462-0.588-2.666-1.404-3.611-2.451c-0.945-1.046-1.648-2.279-2.106-3.697C305.136,111.195,304.908,109.641,304.908,107.95z
			 M320,105.627c0-0.717-0.101-1.397-0.301-2.043c-0.201-0.646-0.494-1.203-0.882-1.678c-0.387-0.473-0.86-0.845-1.419-1.117
			c-0.561-0.271-1.227-0.408-2-0.408c-0.803,0-1.505,0.15-2.105,0.451c-0.604,0.301-1.111,0.694-1.526,1.183
			c-0.416,0.487-0.738,1.047-0.968,1.678c-0.23,0.632-0.387,1.274-0.473,1.935H320L320,105.627z"/>
		<path fill="#07123A" d="M343.306,101.284c-0.43-0.144-1.025-0.293-1.784-0.451c-0.76-0.158-1.642-0.236-2.646-0.236
			c-0.573,0-1.183,0.058-1.828,0.172c-0.645,0.115-1.096,0.216-1.354,0.302v18.017h-5.203V97.672
			c1.004-0.373,2.258-0.725,3.764-1.055c1.504-0.328,3.175-0.494,5.01-0.494c0.344,0,0.744,0.021,1.204,0.064
			c0.458,0.043,0.917,0.102,1.376,0.172c0.458,0.072,0.902,0.158,1.333,0.258c0.43,0.102,0.772,0.193,1.032,0.279L343.306,101.284z"
			/>
	</g>
</g>
</svg>
