<?xml version="1.0" encoding="utf-8"?>
<!-- Generator: Adobe Illustrator 16.0.0, SVG Export Plug-In . SVG Version: 6.00 Build 0)  -->
<!DOCTYPE svg PUBLIC "-//W3C//DTD SVG 1.1//EN" "http://www.w3.org/Graphics/SVG/1.1/DTD/svg11.dtd">
<svg version="1.1" id="Layer_1" xmlns="http://www.w3.org/2000/svg" xmlns:xlink="http://www.w3.org/1999/xlink" x="0px" y="0px"
	 width="535px" height="138px" viewBox="0 0 535 138" enable-background="new 0 0 535 138" xml:space="preserve">
<g>
	<path fill="none" d="M75.966,48.67c-4.482-4.801-8.964-9.604-13.465-14.426c-5.186,4.145-9.714,4.055-14.015,0.777
		c-5.776,5.771-11.412,11.402-17.07,17.057c3.403,5.322,3.391,8.117-0.219,13.465c12.681,12.533,25.382,25.086,38.219,37.775
		c4.252-3.389,8.771-3.357,13.521,0.438c1.899-2.039,3.69-3.996,5.521-5.916c3.779-3.967,7.58-7.91,11.372-11.865
		c0.22-0.104,0.491-0.156,0.653-0.317c6.295-6.287,12.57-12.597,18.876-18.871c1.082-1.076,0.724-1.947,0.04-3.068
		c-1.983-3.254-2.059-6.658-0.066-9.904c0.917-1.494,0.833-2.43-0.415-3.646c-4.642-4.531-9.221-9.129-13.753-13.771
		c-1.099-1.125-1.921-1.416-3.367-0.471c-3.298,2.16-6.801,2.086-10.094,0.004c-1.433-0.906-2.256-0.752-3.384,0.402
		C84.252,40.494,80.092,44.564,75.966,48.67z"/>
	<path fill="#009ee3" d="M99.829,85.975c-3.792,3.955-7.592,7.898-11.372,11.865c-1.831,1.92-3.622,3.877-5.521,5.916
		c-4.749-3.795-9.269-3.826-13.521-0.438C56.579,90.629,43.878,78.076,31.197,65.543c3.61-5.348,3.622-8.143,0.219-13.465
		c5.658-5.654,11.294-11.285,17.07-17.057c4.3,3.277,8.829,3.367,14.015-0.777c4.5,4.822,8.983,9.625,13.465,14.426
		c0.537,0.621,1.041,1.275,1.618,1.857c6.74,6.771,13.461,13.561,20.265,20.268c1.357,1.338,1.875,2.213,0.578,4.092
		C95.997,78.406,96.792,83.139,99.829,85.975z"/>
	<path fill="#fff26b" d="M99.829,85.975c-3.036-2.836-3.832-7.567-1.401-11.088c1.297-1.879,0.779-2.754-0.578-4.092
		c-6.804-6.707-13.525-13.496-20.265-20.268c-0.578-0.582-1.081-1.236-1.618-1.857c4.125-4.105,8.286-8.176,12.353-12.34
		c1.128-1.154,1.952-1.309,3.384-0.402c3.293,2.082,6.796,2.156,10.094-0.004c1.445-0.945,2.268-0.654,3.367,0.471
		c4.532,4.643,9.111,9.24,13.753,13.771c1.247,1.217,1.331,2.152,0.415,3.646c-1.993,3.246-1.917,6.65,0.066,9.904
		c0.684,1.121,1.042,1.992-0.04,3.068c-6.306,6.274-12.581,12.584-18.876,18.871C100.32,85.818,100.049,85.871,99.829,85.975z"/>
	<g>
		<path fill="#009ee3" d="M150.046,86.352c-2.093,0-3.898-0.293-5.418-0.881s-2.773-1.404-3.762-2.451
			c-0.989-1.045-1.72-2.293-2.193-3.74c-0.473-1.447-0.71-3.047-0.71-4.795V55.951h6.708v17.974c0,1.204,0.136,2.229,0.409,3.074
			c0.272,0.847,0.645,1.534,1.118,2.063c0.473,0.531,1.046,0.91,1.72,1.141c0.673,0.229,1.412,0.344,2.215,0.344
			c1.634,0,2.959-0.501,3.978-1.505c1.017-1.003,1.526-2.709,1.526-5.117V55.951h6.708v18.533c0,1.748-0.244,3.354-0.731,4.814
			c-0.488,1.462-1.233,2.717-2.236,3.764s-2.279,1.855-3.827,2.43C154.002,86.064,152.167,86.352,150.046,86.352z"/>
		<path fill="#009ee3" d="M168.149,63.906c1.089-0.315,2.494-0.609,4.214-0.882c1.72-0.272,3.526-0.408,5.418-0.408
			c1.92,0,3.519,0.251,4.794,0.752c1.275,0.502,2.286,1.212,3.031,2.129c0.745,0.918,1.275,2.007,1.591,3.268
			c0.315,1.262,0.473,2.667,0.473,4.213V85.75h-6.407V73.753c0-2.063-0.273-3.526-0.817-4.386c-0.545-0.86-1.563-1.29-3.053-1.29
			c-0.459,0-0.946,0.021-1.462,0.064s-0.975,0.094-1.376,0.15V85.75h-6.407L168.149,63.906L168.149,63.906z"/>
		<path fill="#009ee3" d="M200.27,56.596c0,1.176-0.38,2.101-1.14,2.773c-0.76,0.674-1.655,1.011-2.688,1.011
			c-1.032,0-1.928-0.337-2.688-1.011c-0.76-0.673-1.139-1.598-1.139-2.773c0-1.175,0.379-2.1,1.139-2.773
			c0.759-0.673,1.656-1.011,2.688-1.011c1.032,0,1.928,0.338,2.688,1.011C199.889,54.496,200.27,55.421,200.27,56.596z
			 M199.667,85.75h-6.407V63.132h6.407V85.75z"/>
		<path fill="#009ee3" d="M210.966,85.75c-1.468-2.866-2.957-6.221-4.467-10.063c-1.511-3.842-2.942-8.025-4.294-12.557h6.794
			c0.288,1.118,0.626,2.329,1.015,3.634c0.388,1.305,0.792,2.623,1.209,3.956c0.417,1.334,0.834,2.631,1.252,3.893
			c0.417,1.262,0.828,2.408,1.231,3.438c0.374-1.03,0.776-2.178,1.208-3.438c0.431-1.262,0.856-2.559,1.273-3.893
			c0.417-1.333,0.82-2.651,1.209-3.956c0.388-1.305,0.727-2.516,1.015-3.634h6.626c-1.352,4.53-2.782,8.715-4.292,12.557
			c-1.509,3.842-2.997,7.195-4.463,10.063H210.966z"/>
		<path fill="#009ee3" d="M226.542,74.613c0-2.008,0.308-3.764,0.924-5.269c0.616-1.505,1.426-2.759,2.43-3.763
			c1.003-1.003,2.157-1.763,3.461-2.279c1.304-0.516,2.645-0.772,4.021-0.772c3.21,0,5.747,0.982,7.611,2.945
			c1.863,1.964,2.795,4.853,2.795,8.664c0,0.373-0.015,0.782-0.043,1.227c-0.029,0.445-0.058,0.839-0.086,1.183h-14.534
			c0.143,1.319,0.759,2.365,1.849,3.14c1.089,0.773,2.551,1.16,4.386,1.16c1.175,0,2.329-0.106,3.461-0.322
			c1.132-0.215,2.057-0.479,2.773-0.795l0.86,5.203c-0.344,0.172-0.803,0.344-1.376,0.517c-0.574,0.172-1.211,0.321-1.913,0.45
			c-0.703,0.13-1.456,0.236-2.258,0.322c-0.803,0.086-1.605,0.129-2.408,0.129c-2.036,0-3.806-0.301-5.311-0.901
			c-1.505-0.603-2.752-1.427-3.741-2.474c-0.989-1.045-1.72-2.285-2.193-3.72C226.779,77.824,226.542,76.275,226.542,74.613z
			 M241.592,72.162c-0.029-0.544-0.122-1.075-0.279-1.592c-0.158-0.516-0.402-0.975-0.731-1.375
			c-0.33-0.401-0.746-0.731-1.247-0.989c-0.502-0.258-1.125-0.387-1.871-0.387c-0.717,0-1.333,0.122-1.849,0.365
			c-0.516,0.244-0.946,0.566-1.29,0.968c-0.344,0.401-0.609,0.868-0.795,1.397c-0.187,0.53-0.322,1.068-0.408,1.612L241.592,72.162
			L241.592,72.162z"/>
		<path fill="#009ee3" d="M266.145,68.808c-0.574-0.143-1.247-0.293-2.021-0.451c-0.773-0.157-1.605-0.236-2.493-0.236
			c-0.402,0-0.882,0.036-1.441,0.107c-0.559,0.072-0.982,0.15-1.268,0.236V85.75h-6.407V64.336c1.146-0.401,2.501-0.78,4.064-1.14
			c1.562-0.357,3.304-0.537,5.225-0.537c0.344,0,0.759,0.021,1.247,0.064c0.486,0.043,0.974,0.101,1.462,0.172
			c0.486,0.072,0.974,0.158,1.462,0.258c0.487,0.101,0.902,0.223,1.247,0.365L266.145,68.808z"/>
		<path fill="#009ee3" d="M276.938,81.148c1.176,0,2.006-0.113,2.494-0.344c0.487-0.229,0.73-0.674,0.73-1.334
			c0-0.516-0.314-0.967-0.945-1.354s-1.591-0.823-2.881-1.313c-1.004-0.371-1.914-0.759-2.73-1.16
			c-0.816-0.4-1.513-0.881-2.086-1.44c-0.574-0.56-1.018-1.226-1.332-1.999c-0.315-0.773-0.474-1.705-0.474-2.795
			c0-2.121,0.788-3.798,2.364-5.031c1.576-1.232,3.74-1.849,6.492-1.849c1.377,0,2.695,0.122,3.957,0.365
			c1.262,0.244,2.265,0.509,3.01,0.796l-1.117,4.987c-0.746-0.258-1.557-0.487-2.43-0.688c-0.875-0.2-1.856-0.301-2.945-0.301
			c-2.007,0-3.011,0.559-3.011,1.677c0,0.258,0.043,0.487,0.129,0.688c0.087,0.2,0.259,0.395,0.517,0.58
			c0.258,0.187,0.608,0.389,1.055,0.604c0.442,0.217,1.01,0.454,1.697,0.715c1.404,0.521,2.565,1.034,3.483,1.539
			c0.917,0.506,1.642,1.053,2.171,1.639c0.53,0.586,0.902,1.237,1.118,1.952c0.215,0.715,0.321,1.545,0.321,2.488
			c0,2.229-0.838,3.919-2.516,5.063c-1.677,1.145-4.049,1.717-7.115,1.717c-2.008,0-3.678-0.172-5.011-0.517
			c-1.333-0.344-2.257-0.63-2.772-0.86l1.074-5.201c1.09,0.43,2.207,0.767,3.354,1.01C274.688,81.027,275.82,81.148,276.938,81.148z
			"/>
		<path fill="#009ee3" d="M299.211,62.53c1.893,0,3.469,0.215,4.73,0.645c1.261,0.431,2.271,1.047,3.031,1.85
			c0.76,0.803,1.297,1.777,1.611,2.924c0.314,1.147,0.475,2.423,0.475,3.826v13.33c-0.918,0.201-2.193,0.438-3.828,0.709
			c-1.633,0.272-3.611,0.408-5.935,0.408c-1.462,0-2.788-0.129-3.978-0.387c-1.19-0.258-2.215-0.681-3.074-1.27
			c-0.86-0.586-1.52-1.354-1.979-2.301c-0.459-0.945-0.688-2.105-0.688-3.481c0-1.318,0.266-2.437,0.796-3.354
			c0.53-0.916,1.239-1.646,2.128-2.191s1.906-0.938,3.055-1.184c1.146-0.242,2.336-0.365,3.567-0.365
			c0.831,0,1.569,0.037,2.215,0.107c0.646,0.071,1.168,0.165,1.569,0.279v-0.604c0-1.089-0.33-1.963-0.989-2.623
			c-0.659-0.659-1.806-0.988-3.438-0.988c-1.09,0-2.166,0.079-3.227,0.236c-1.061,0.158-1.979,0.38-2.752,0.666l-0.816-5.159
			c0.373-0.114,0.838-0.237,1.397-0.366c0.56-0.129,1.167-0.243,1.827-0.344c0.658-0.101,1.354-0.187,2.086-0.258
			C297.729,62.566,298.466,62.53,299.211,62.53z M299.729,81.277c0.629,0,1.23-0.014,1.806-0.043
			c0.573-0.027,1.032-0.07,1.376-0.129v-4.858c-0.258-0.058-0.645-0.114-1.161-0.172s-0.989-0.086-1.419-0.086
			c-0.602,0-1.168,0.036-1.698,0.106c-0.53,0.071-0.996,0.209-1.397,0.408c-0.401,0.201-0.717,0.473-0.945,0.816
			c-0.229,0.345-0.344,0.773-0.344,1.291c0,1.004,0.337,1.697,1.011,2.084C297.627,81.085,298.552,81.277,299.729,81.277z"/>
		<path fill="#009ee3" d="M323.678,86.18c-1.863-0.027-3.376-0.229-4.535-0.602c-1.162-0.372-2.08-0.896-2.752-1.569
			c-0.676-0.674-1.134-1.489-1.377-2.45c-0.244-0.961-0.365-2.043-0.365-3.248V53.414l6.406-1.032v24.64
			c0,0.573,0.043,1.09,0.129,1.549s0.252,0.846,0.494,1.16c0.244,0.315,0.596,0.574,1.055,0.773c0.457,0.201,1.074,0.33,1.85,0.387
			L323.678,86.18z"/>
		<path fill="#009ee3" d="M347.462,85.75c-1.187-2.503-2.356-5.102-3.51-7.792c-1.154-2.692-2.25-5.354-3.288-7.99
			c-1.039-2.635-1.993-5.157-2.863-7.566c-0.871-2.409-1.624-4.559-2.257-6.45h7.396c0.559,1.726,1.179,3.583,1.86,5.571
			c0.683,1.99,1.38,3.973,2.087,5.948c0.709,1.975,1.387,3.868,2.035,5.679c0.648,1.81,1.271,3.371,1.865,4.688
			c0.561-1.308,1.172-2.865,1.835-4.676c0.664-1.811,1.351-3.702,2.06-5.679c0.707-1.975,1.402-3.958,2.086-5.947
			c0.683-1.988,1.303-3.851,1.863-5.585h7.143c-0.668,1.9-1.437,4.054-2.306,6.457c-0.868,2.405-1.817,4.926-2.851,7.563
			c-1.032,2.639-2.121,5.305-3.268,8c-1.146,2.694-2.311,5.287-3.492,7.779H347.462z"/>
		<path fill="#009ee3" d="M387.746,74.398c0,1.776-0.258,3.403-0.773,4.879c-0.517,1.478-1.263,2.738-2.236,3.785
			c-0.975,1.047-2.144,1.855-3.504,2.43c-1.361,0.574-2.89,0.859-4.58,0.859c-1.662,0-3.176-0.287-4.536-0.859
			c-1.361-0.573-2.53-1.383-3.505-2.43s-1.734-2.309-2.278-3.785c-0.545-1.476-0.817-3.103-0.817-4.879
			c0-1.777,0.28-3.397,0.84-4.859c0.559-1.462,1.332-2.709,2.322-3.741c0.988-1.032,2.163-1.834,3.524-2.408
			c1.36-0.573,2.845-0.859,4.45-0.859c1.635,0,3.132,0.286,4.494,0.859c1.36,0.574,2.528,1.376,3.504,2.408
			c0.975,1.032,1.733,2.279,2.279,3.741C387.475,71.001,387.746,72.621,387.746,74.398z M381.209,74.398
			c0-1.979-0.395-3.533-1.184-4.666c-0.787-1.132-1.912-1.698-3.375-1.698c-1.461,0-2.594,0.566-3.396,1.698
			c-0.803,1.133-1.204,2.688-1.204,4.666c0,1.978,0.401,3.547,1.204,4.707c0.803,1.162,1.936,1.742,3.396,1.742
			s2.588-0.58,3.375-1.742C380.814,77.945,381.209,76.376,381.209,74.398z"/>
		<path fill="#009ee3" d="M411.783,84.977c-1.09,0.315-2.494,0.608-4.215,0.881s-3.525,0.408-5.418,0.408
			c-1.922,0-3.52-0.258-4.794-0.772c-1.276-0.517-2.286-1.24-3.031-2.173c-0.746-0.93-1.276-2.041-1.593-3.331
			c-0.315-1.29-0.473-2.709-0.473-4.257V63.132h6.407v11.825c0,2.064,0.271,3.555,0.816,4.473c0.545,0.918,1.563,1.375,3.054,1.375
			c0.458,0,0.945-0.021,1.462-0.063c0.516-0.043,0.974-0.093,1.376-0.15V63.132h6.407L411.783,84.977L411.783,84.977z"/>
		<path fill="#009ee3" d="M416.511,74.441c0-1.635,0.267-3.176,0.796-4.623c0.53-1.447,1.297-2.709,2.302-3.784
			c1.003-1.074,2.221-1.928,3.653-2.559c1.435-0.63,3.067-0.945,4.902-0.945c1.204,0,2.308,0.107,3.312,0.322
			c1.003,0.215,1.979,0.523,2.925,0.925l-1.333,5.116c-0.604-0.229-1.263-0.43-1.979-0.602s-1.52-0.258-2.408-0.258
			c-1.892,0-3.304,0.588-4.234,1.763c-0.933,1.177-1.397,2.724-1.397,4.646c0,2.035,0.438,3.61,1.313,4.729s2.4,1.678,4.58,1.678
			c0.772,0,1.604-0.072,2.493-0.216c0.889-0.143,1.705-0.372,2.45-0.688l0.903,5.246c-0.746,0.315-1.677,0.588-2.795,0.816
			s-2.352,0.344-3.698,0.344c-2.063,0-3.842-0.308-5.332-0.924c-1.49-0.615-2.716-1.455-3.676-2.516
			c-0.961-1.061-1.663-2.314-2.107-3.764C416.733,77.702,416.511,76.133,416.511,74.441z"/>
		<path fill="#009ee3" d="M438.872,85.75V53.414l6.407-1.032v10.836c0.43-0.143,0.98-0.279,1.654-0.408
			c0.675-0.129,1.326-0.193,1.957-0.193c1.834,0,3.36,0.251,4.579,0.752c1.219,0.502,2.193,1.212,2.925,2.129
			c0.73,0.918,1.246,2.007,1.548,3.268s0.452,2.666,0.452,4.214v12.77h-6.407V73.753c0-2.063-0.267-3.526-0.796-4.386
			c-0.53-0.86-1.513-1.29-2.945-1.29c-0.573,0-1.111,0.05-1.612,0.15c-0.502,0.101-0.953,0.208-1.354,0.322v17.2L438.872,85.75
			L438.872,85.75z"/>
		<path fill="#009ee3" d="M462.908,74.613c0-2.008,0.309-3.764,0.925-5.269s1.426-2.759,2.43-3.763
			c1.003-1.003,2.156-1.763,3.462-2.279c1.305-0.516,2.645-0.772,4.021-0.772c3.21,0,5.747,0.982,7.609,2.945
			c1.863,1.964,2.796,4.853,2.796,8.664c0,0.373-0.016,0.782-0.043,1.227c-0.028,0.445-0.059,0.839-0.087,1.183h-14.533
			c0.144,1.319,0.76,2.365,1.85,3.14c1.089,0.773,2.551,1.16,4.386,1.16c1.176,0,2.329-0.106,3.462-0.322
			c1.133-0.215,2.058-0.479,2.773-0.795l0.859,5.203c-0.345,0.172-0.804,0.344-1.376,0.517c-0.573,0.172-1.211,0.321-1.913,0.45
			c-0.703,0.13-1.455,0.236-2.258,0.322c-0.804,0.086-1.605,0.129-2.408,0.129c-2.035,0-3.806-0.301-5.312-0.901
			c-1.505-0.603-2.752-1.427-3.739-2.474c-0.989-1.045-1.722-2.285-2.193-3.72C463.145,77.824,462.908,76.275,462.908,74.613z
			 M477.958,72.162c-0.029-0.544-0.123-1.075-0.28-1.592c-0.156-0.516-0.4-0.975-0.729-1.375c-0.33-0.401-0.746-0.731-1.247-0.989
			c-0.502-0.258-1.125-0.387-1.87-0.387c-0.718,0-1.333,0.122-1.85,0.365c-0.517,0.244-0.946,0.566-1.29,0.968
			c-0.345,0.403-0.609,0.868-0.796,1.397c-0.188,0.53-0.322,1.068-0.408,1.612L477.958,72.162L477.958,72.162z"/>
		<path fill="#009ee3" d="M502.51,68.808c-0.572-0.143-1.247-0.293-2.021-0.451c-0.774-0.157-1.605-0.236-2.494-0.236
			c-0.401,0-0.882,0.036-1.44,0.107c-0.559,0.072-0.981,0.15-1.269,0.236V85.75h-6.407V64.336c1.146-0.401,2.501-0.78,4.063-1.14
			c1.563-0.357,3.304-0.537,5.225-0.537c0.344,0,0.76,0.021,1.247,0.064s0.975,0.101,1.462,0.172
			c0.487,0.072,0.975,0.158,1.462,0.258c0.487,0.101,0.903,0.223,1.247,0.365L502.51,68.808z"/>
	</g>
</g>
</svg>
