<?xml version="1.0" encoding="iso-8859-1"?>
<!-- Generator: Adobe Illustrator 19.0.0, SVG Export Plug-In . SVG Version: 6.00 Build 0)  -->
<svg version="1.1" id="Layer_1" xmlns="http://www.w3.org/2000/svg" xmlns:xlink="http://www.w3.org/1999/xlink" x="0px" y="0px"
	 viewBox="0 0 512 512" style="enable-background:new 0 0 512 512;" xml:space="preserve">
<g>
	<g>
		<path d="M356.843,384.007c-7.61,3.782-15.456,7.156-23.517,10.081c-24.149,8.761-50.186,13.548-77.325,13.548
			c-27.139,0-53.176-4.787-77.325-13.548c-8.062-2.924-15.907-6.3-23.517-10.081c-8.126-4.037-15.976-8.546-23.517-13.491v117.967
			c0,8.186,4.258,15.782,11.24,20.057c6.983,4.275,15.685,4.609,22.975,0.884l90.15-46.041l90.141,46.041
			c3.369,1.723,7.036,2.576,10.696,2.576c4.266,0,8.523-1.16,12.279-3.46c6.982-4.275,11.24-11.872,11.24-20.057V370.516
			C372.819,375.461,364.969,379.97,356.843,384.007z"/>
	</g>
</g>
<g>
	<g>
		<path d="M256,141.105c-21.613,0-39.196,17.594-39.196,39.221c0,21.597,17.583,39.171,39.196,39.171s39.196-17.574,39.196-39.171
			C295.196,158.699,277.613,141.105,256,141.105z"/>
	</g>
</g>
<g>
	<g>
		<path d="M256,0C156.582,0,75.7,80.908,75.7,180.358c0,51.234,21.493,97.543,55.94,130.389
			c7.286,6.949,15.153,13.294,23.517,18.955c7.461,5.052,15.321,9.553,23.517,13.458c23.447,11.174,49.667,17.441,77.325,17.441
			c27.66,0,53.878-6.267,77.325-17.441c8.197-3.905,16.056-8.407,23.517-13.458c8.364-5.661,16.232-12.006,23.517-18.955
			c34.447-32.846,55.94-79.155,55.94-130.389C436.3,80.908,355.418,0,256,0z M256,266.531c-47.548,0-86.231-38.672-86.231-86.206
			c0-47.562,38.683-86.256,86.231-86.256s86.231,38.694,86.231,86.256C342.231,227.859,303.548,266.531,256,266.531z"/>
	</g>
</g>
<g>
</g>
<g>
</g>
<g>
</g>
<g>
</g>
<g>
</g>
<g>
</g>
<g>
</g>
<g>
</g>
<g>
</g>
<g>
</g>
<g>
</g>
<g>
</g>
<g>
</g>
<g>
</g>
<g>
</g>
</svg>
