<?xml version="1.0" standalone="no"?>
<!DOCTYPE svg PUBLIC "-//W3C//DTD SVG 20010904//EN"
 "http://www.w3.org/TR/2001/REC-SVG-20010904/DTD/svg10.dtd">
<svg version="1.0" xmlns="http://www.w3.org/2000/svg"
 width="389.000000pt" height="389.000000pt" viewBox="0 0 389.000000 389.000000"
 preserveAspectRatio="xMidYMid meet">
<metadata>
Created by potrace 1.11, written by Peter Selinger 2001-2013
</metadata>
<g transform="translate(0.000000,389.000000) scale(0.100000,-0.100000)"
fill="#000000" stroke="none">
<path d="M1762 3880 c-364 -38 -689 -168 -968 -386 -85 -67 -99 -74 -139 -74
l-44 0 -3 53 -3 52 -52 3 -53 3 0 -55 0 -56 -56 0 -55 0 3 -52 3 -53 53 -3 52
-3 0 -50 c0 -44 -5 -56 -39 -97 -107 -129 -249 -387 -311 -566 -33 -96 -33
-126 0 -55 11 24 18 36 16 26 -65 -227 -85 -343 -91 -517 -5 -156 6 -125 24
66 7 67 23 170 36 230 25 111 84 299 91 291 2 -2 -7 -36 -21 -76 -56 -165 -96
-411 -94 -568 2 -69 3 -63 10 47 36 526 248 963 629 1298 279 245 626 394
1025 442 189 22 478 -15 710 -92 308 -102 638 -332 819 -572 223 -295 334
-557 381 -896 8 -63 17 -125 19 -137 2 -12 0 -21 -3 -18 -4 2 -5 -39 -3 -90 5
-111 -11 -268 -44 -425 -64 -301 -231 -617 -453 -854 -65 -70 -22 -37 78 58
85 83 91 74 16 -24 -88 -115 -307 -303 -447 -384 -27 -15 -48 -30 -48 -33 0
-2 5 -1 10 2 6 3 10 4 10 1 0 -3 -29 -21 -65 -41 -36 -20 -65 -39 -65 -41 0
-10 191 93 269 144 225 148 462 400 567 602 16 30 32 56 37 58 4 2 7 8 7 14 0
6 20 54 44 108 81 177 130 347 172 595 4 22 8 131 9 243 1 111 4 205 8 208 25
25 19 -403 -8 -551 -29 -163 -66 -308 -99 -395 -39 -100 -95 -214 -107 -218
-5 -2 -7 -8 -3 -13 3 -5 0 -9 -6 -9 -6 0 -9 -4 -5 -10 3 -5 -3 -18 -15 -30
-11 -11 -20 -22 -20 -25 0 -3 0 -10 0 -16 0 -5 -5 -7 -12 -3 -6 4 -8 3 -5 -3
9 -14 -81 -142 -176 -253 -275 -319 -665 -538 -1112 -621 -84 -16 -90 -18 -35
-13 36 3 96 12 134 20 38 8 71 13 73 10 10 -9 -278 -61 -387 -69 -25 -2 -3 -4
48 -5 342 -7 805 177 1115 442 l77 67 0 -31 c0 -29 1 -30 49 -30 l50 0 3 -52
3 -53 53 -3 52 -3 0 55 0 56 56 0 55 0 -3 53 -3 52 -52 3 -53 3 0 50 c0 48 -1
49 -30 49 -16 0 -30 3 -30 6 0 3 17 27 39 53 158 190 352 597 354 743 1 30 4
43 9 35 5 -7 6 5 3 28 -4 31 -3 35 5 20 7 -15 9 -9 4 25 -3 29 -2 40 4 32 15
-23 32 149 32 331 0 478 -136 883 -407 1215 l-46 57 32 3 c30 3 31 5 31 52 l0
49 53 3 52 3 3 53 3 52 -55 0 -56 0 0 56 0 55 -52 -3 -53 -3 -3 -52 -3 -53
-50 0 c-48 0 -49 -1 -49 -30 l0 -30 -80 69 c-205 177 -497 329 -759 396 -210
53 -471 75 -659 55z m471 -37 c-7 -2 -21 -2 -30 0 -10 3 -4 5 12 5 17 0 24 -2
18 -5z m50 -10 c-7 -2 -19 -2 -25 0 -7 3 -2 5 12 5 14 0 19 -2 13 -5z m50 -10
c-7 -2 -19 -2 -25 0 -7 3 -2 5 12 5 14 0 19 -2 13 -5z m44 -9 c-3 -3 -12 -4
-19 -1 -8 3 -5 6 6 6 11 1 17 -2 13 -5z m40 -10 c-3 -3 -12 -4 -19 -1 -8 3 -5
6 6 6 11 1 17 -2 13 -5z m77 -20 c26 -9 45 -18 43 -20 -2 -2 -28 5 -58 15 -30
11 -49 20 -43 20 6 1 32 -6 58 -15z m136 -54 c8 -5 11 -10 5 -10 -5 0 -17 5
-25 10 -8 5 -10 10 -5 10 6 0 17 -5 25 -10z m426 -252 c4 -7 -9 1 -29 16 -20
16 -37 30 -37 33 0 7 58 -36 66 -49z m39 -28 c10 -11 16 -20 13 -20 -3 0 -13
9 -23 20 -10 11 -16 20 -13 20 3 0 13 -9 23 -20z m65 -55 c19 -19 32 -35 29
-35 -3 0 -20 16 -39 35 -19 19 -32 35 -29 35 3 0 20 -16 39 -35z m-2550 -18
c0 -54 -13 -67 -67 -67 l-43 0 0 55 0 55 55 0 55 0 0 -43z m2860 -12 l0 -55
-55 0 c-53 0 -55 -1 -55 -27 l0 -28 -20 25 c-19 25 -19 25 0 28 17 3 20 12 20
58 l0 54 55 0 55 0 0 -55z m-209 -72 c13 -16 12 -17 -3 -4 -17 13 -22 21 -14
21 2 0 10 -8 17 -17z m249 -313 c6 -11 8 -20 6 -20 -3 0 -10 9 -16 20 -6 11
-8 20 -6 20 3 0 10 -9 16 -20z m85 -158 c32 -62 55 -115 54 -117 -2 -2 -32 54
-67 123 -35 70 -59 123 -53 117 5 -5 35 -61 66 -123z m75 -167 c0 -5 -5 -3
-10 5 -5 8 -10 20 -10 25 0 6 5 3 10 -5 5 -8 10 -19 10 -25z m-3479 -22 c-12
-20 -14 -14 -5 12 4 9 9 14 11 11 3 -2 0 -13 -6 -23z m3546 -205 c-3 -8 -6 -5
-6 6 -1 11 2 17 5 13 3 -3 4 -12 1 -19z m72 -198 c0 -9 -4 -8 -9 5 -5 11 -9
27 -9 35 0 9 4 8 9 -5 5 -11 9 -27 9 -35z m-22 -812 c-3 -8 -6 -5 -6 6 -1 11
2 17 5 13 3 -3 4 -12 1 -19z m-208 -470 c-46 -87 -218 -309 -285 -368 -16 -14
1 9 38 50 80 91 187 232 223 294 27 47 46 65 24 24z m-163 -388 l54 0 0 -55 0
-55 -55 0 -55 0 0 55 c0 53 -1 55 -27 55 l-26 0 24 26 24 26 3 -26 c3 -24 7
-26 58 -26z m-216 -71 c-61 -55 -176 -142 -245 -185 -47 -28 -28 -12 80 68 55
41 127 98 159 126 81 71 86 65 6 -9z m-753 -405 c-3 -3 -12 -4 -19 -1 -8 3 -5
6 6 6 11 1 17 -2 13 -5z"/>
<path d="M2366 3498 c-8 -13 -85 -174 -171 -358 -86 -184 -162 -340 -168 -346
-7 -6 -172 -34 -367 -63 -195 -29 -367 -57 -382 -62 -31 -13 -42 -46 -24 -74
7 -11 131 -140 275 -288 193 -198 261 -274 261 -291 0 -13 -27 -188 -60 -389
-33 -200 -60 -374 -60 -385 0 -12 11 -29 25 -38 30 -19 -11 -38 406 191 164
91 303 165 308 165 6 0 157 -81 336 -179 178 -99 333 -182 343 -186 11 -3 29
2 42 13 l24 19 -63 389 c-34 214 -64 395 -67 402 -2 7 120 140 271 295 293
300 306 318 253 350 -13 8 -185 38 -383 67 -198 29 -366 58 -372 64 -7 6 -85
167 -174 356 -89 190 -166 351 -171 358 -17 20 -66 15 -82 -10z m194 -469 c80
-171 152 -317 162 -325 10 -10 125 -32 340 -65 177 -27 329 -50 337 -51 8 -2
-91 -111 -226 -249 -132 -135 -245 -254 -251 -265 -7 -14 5 -109 47 -369 32
-192 57 -352 55 -354 -1 -2 -138 72 -303 163 -165 91 -305 166 -312 166 -6 0
-146 -75 -311 -166 -165 -91 -301 -164 -303 -162 -2 2 21 152 51 333 30 182
54 344 54 361 0 27 -31 63 -247 285 -150 154 -242 255 -233 256 8 2 161 26
340 53 249 39 329 54 341 68 9 9 81 155 160 325 79 169 146 307 149 307 3 0
70 -140 150 -311z"/>
<path d="M2362 2832 c-36 -11 -93 -62 -108 -98 -8 -18 -14 -50 -14 -71 -1 -35
-4 -40 -43 -58 -25 -12 -54 -38 -72 -63 l-30 -44 -3 -180 c-4 -206 0 -218 70
-218 l38 0 0 -169 c0 -141 3 -172 16 -185 23 -24 365 -24 388 0 13 13 16 44
16 185 l0 169 39 0 c64 0 71 18 71 193 0 81 -5 169 -12 194 -13 52 -71 118
-113 129 -21 5 -25 12 -25 43 0 42 -29 108 -56 133 -44 39 -109 55 -162 40z
m86 -118 c28 -19 29 -65 2 -103 -17 -22 -19 -32 -11 -54 9 -23 16 -27 51 -27
51 0 105 -22 119 -48 6 -12 11 -77 11 -151 l0 -131 -39 0 c-21 0 -43 -6 -50
-13 -6 -8 -12 -79 -13 -183 l-3 -169 -105 0 -105 0 -3 169 c-1 104 -7 175 -13
183 -7 7 -29 13 -50 13 l-39 0 0 138 c0 132 1 139 23 161 16 14 42 24 78 28
30 3 60 10 67 16 16 13 15 57 -2 76 -26 30 -27 57 -5 84 23 30 54 34 87 11z"/>
<path d="M915 2876 c-103 -45 -126 -180 -44 -258 52 -50 110 -59 173 -28 119
57 120 222 2 279 -48 24 -88 26 -131 7z m107 -121 c17 -38 -3 -75 -42 -75 -21
0 -34 8 -46 25 -15 23 -15 27 0 50 12 17 25 25 46 25 23 0 33 -6 42 -25z"/>
<path d="M653 2510 c-49 -20 -59 -96 -17 -129 15 -12 37 -21 49 -21 12 0 34 9
49 21 20 16 26 29 26 59 0 30 -6 43 -26 59 -29 23 -46 25 -81 11z m55 -74 c-4
-25 -36 -34 -44 -12 -8 21 13 46 32 39 8 -3 14 -15 12 -27z"/>
<path d="M820 2284 c-98 -43 -153 -126 -154 -234 -1 -36 2 -77 7 -92 7 -25 5
-28 -16 -28 -83 0 -189 -76 -234 -168 l-28 -57 -3 -312 -4 -312 26 -26 c23
-23 32 -25 111 -25 l85 0 0 -215 c0 -118 -4 -215 -8 -215 -22 0 -200 227 -277
354 -50 83 -74 106 -29 29 56 -98 149 -227 230 -319 l84 -96 0 -97 c0 -62 4
-101 12 -109 8 -8 52 -12 133 -12 87 0 128 -4 149 -15 24 -13 27 -13 17 -1
-11 13 8 15 139 14 104 0 155 4 165 12 13 11 15 90 15 561 0 302 2 549 5 549
3 0 46 -20 95 -45 118 -59 172 -62 228 -11 l37 34 3 307 c2 223 0 311 -9 321
-15 19 -269 20 -287 2 -8 -8 -12 -53 -12 -135 0 -68 -4 -123 -9 -123 -7 0
-130 65 -138 73 -1 1 8 29 19 62 23 70 19 144 -12 205 -25 50 -99 114 -148
128 -54 16 -150 14 -192 -4z m177 -105 c52 -25 83 -78 83 -139 0 -45 -10 -70
-46 -113 -48 -58 -35 -72 172 -185 73 -40 139 -72 147 -72 9 0 23 7 31 16 13
13 16 42 16 160 l0 144 55 0 55 0 -2 -246 c-3 -213 -5 -248 -19 -257 -12 -8
-49 7 -158 62 -137 70 -143 72 -167 56 l-24 -15 0 -570 0 -570 -80 0 -80 0 0
370 0 370 -55 0 -55 0 0 -370 0 -370 -54 0 c-39 0 -60 6 -80 21 l-26 20 0 565
0 564 -50 0 -50 0 0 -240 0 -240 -55 0 -56 0 3 279 3 279 30 43 c43 61 92 83
193 88 70 3 84 6 97 24 21 30 19 42 -15 80 -72 82 -51 205 43 248 55 24 91 24
144 -2z m-267 -1714 c10 -12 10 -15 -4 -15 -9 0 -16 7 -16 15 0 8 2 15 4 15 2
0 9 -7 16 -15z"/>
<path d="M2360 925 l0 -55 -55 0 -55 0 0 -50 0 -50 55 0 55 0 0 -55 0 -55 50
0 50 0 0 55 0 55 55 0 55 0 0 50 0 50 -55 0 -55 0 0 55 0 55 -50 0 -50 0 0
-55z m100 -105 l0 -50 -50 0 -50 0 0 50 0 50 50 0 50 0 0 -50z"/>
<path d="M3090 608 c-38 -35 -43 -41 -15 -20 37 28 83 73 74 72 -2 -1 -29 -24
-59 -52z"/>
<path d="M940 316 c0 -3 9 -10 20 -16 11 -6 20 -8 20 -6 0 3 -9 10 -20 16 -11
6 -20 8 -20 6z"/>
<path d="M1127 279 c7 -7 15 -10 18 -7 3 3 -2 9 -12 12 -14 6 -15 5 -6 -5z"/>
<path d="M1375 105 c17 -8 37 -14 45 -14 8 0 -1 7 -20 14 -46 18 -64 17 -25 0z"/>
<path d="M1448 83 c7 -3 16 -2 19 1 4 3 -2 6 -13 5 -11 0 -14 -3 -6 -6z"/>
<path d="M1488 73 c7 -3 16 -2 19 1 4 3 -2 6 -13 5 -11 0 -14 -3 -6 -6z"/>
<path d="M2053 33 c15 -2 39 -2 55 0 15 2 2 4 -28 4 -30 0 -43 -2 -27 -4z"/>
</g>
</svg>
